<svg width="49" height="49" viewBox="0 0 49 49" fill="none" xmlns="http://www.w3.org/2000/svg">
<g clip-path="url(#clip0_0_75)">
<path d="M44.5998 6.42389H4.61581C4.00691 6.42389 3.51331 6.9175 3.51331 7.52639V41.4687C3.51331 42.0776 4.00691 42.5712 4.61581 42.5712H44.5998C45.2087 42.5712 45.7023 42.0776 45.7023 41.4687V7.52639C45.7023 6.9175 45.2087 6.42389 44.5998 6.42389Z" fill="white"/>
<path d="M44.59 43.3111H4.62071C4.13247 43.3098 3.6646 43.1153 3.31936 42.7701C2.97412 42.4248 2.7796 41.9569 2.77831 41.4687V7.5313C2.7796 7.04307 2.97412 6.5752 3.31936 6.22996C3.6646 5.88472 4.13247 5.6902 4.62071 5.6889H44.59C45.0778 5.6902 45.5452 5.88488 45.8896 6.23026C46.2341 6.57564 46.4275 7.04352 46.4275 7.5313V41.4687C46.4275 41.9565 46.2341 42.4244 45.8896 42.7697C45.5452 43.1151 45.0778 43.3098 44.59 43.3111ZM4.62071 7.1589C4.52194 7.1589 4.42722 7.19814 4.35738 7.26798C4.28754 7.33782 4.2483 7.43254 4.2483 7.5313V41.4687C4.2483 41.5675 4.28754 41.6622 4.35738 41.732C4.42722 41.8019 4.52194 41.8411 4.62071 41.8411H44.59C44.6879 41.8398 44.7814 41.8 44.8502 41.7303C44.9189 41.6606 44.9575 41.5666 44.9575 41.4687V7.5313C44.9575 7.43338 44.9189 7.33939 44.8502 7.26969C44.7814 7.2 44.6879 7.16019 44.59 7.1589H4.62071Z" fill="#0E0E0E"/>
<path d="M7.78121 10.4076C8.27644 10.4076 8.67791 10.0061 8.67791 9.5109C8.67791 9.01566 8.27644 8.6142 7.78121 8.6142C7.28597 8.6142 6.88451 9.01566 6.88451 9.5109C6.88451 10.0061 7.28597 10.4076 7.78121 10.4076Z" fill="#0E0E0E"/>
<path d="M10.8388 10.4076C11.334 10.4076 11.7355 10.0061 11.7355 9.5109C11.7355 9.01566 11.334 8.6142 10.8388 8.6142C10.3436 8.6142 9.94209 9.01566 9.94209 9.5109C9.94209 10.0061 10.3436 10.4076 10.8388 10.4076Z" fill="#0E0E0E"/>
<path d="M13.8915 10.4076C14.3867 10.4076 14.7882 10.0061 14.7882 9.5109C14.7882 9.01566 14.3867 8.6142 13.8915 8.6142C13.3963 8.6142 12.9948 9.01566 12.9948 9.5109C12.9948 10.0061 13.3963 10.4076 13.8915 10.4076Z" fill="#0E0E0E"/>
<path d="M41.3609 10.2459H33.0309C32.836 10.2459 32.649 10.1684 32.5112 10.0306C32.3733 9.89276 32.2959 9.70581 32.2959 9.51088C32.2959 9.31594 32.3733 9.129 32.5112 8.99116C32.649 8.85332 32.836 8.77588 33.0309 8.77588H41.3609C41.5558 8.77588 41.7428 8.85332 41.8806 8.99116C42.0185 9.129 42.0959 9.31594 42.0959 9.51088C42.0959 9.70581 42.0185 9.89276 41.8806 10.0306C41.7428 10.1684 41.5558 10.2459 41.3609 10.2459Z" fill="#0E0E0E"/>
<path d="M45.7023 11.5395H3.51331V13.0095H45.7023V11.5395Z" fill="#0E0E0E"/>
<path d="M42.5908 14.9891H6.5709C6.32734 14.9891 6.1299 15.1865 6.1299 15.4301V19.8793C6.1299 20.1228 6.32734 20.3203 6.5709 20.3203H42.5908C42.8344 20.3203 43.0318 20.1228 43.0318 19.8793V15.4301C43.0318 15.1865 42.8344 14.9891 42.5908 14.9891Z" fill="white"/>
<path d="M42.5908 20.8054H6.57089C6.32398 20.8054 6.08717 20.7073 5.91258 20.5327C5.73798 20.3581 5.63989 20.1213 5.63989 19.8744V15.4301C5.63989 15.1832 5.73798 14.9464 5.91258 14.7718C6.08717 14.5972 6.32398 14.4991 6.57089 14.4991H42.5908C42.8373 14.5004 43.0734 14.5989 43.2477 14.7732C43.422 14.9475 43.5205 15.1836 43.5218 15.4301V19.8744C43.5205 20.1209 43.422 20.357 43.2477 20.5313C43.0734 20.7056 42.8373 20.8041 42.5908 20.8054ZM6.61989 19.8254H42.5418V15.4791H6.61989V19.8254Z" fill="#0E0E0E"/>
<path d="M42.5859 23.4024H29.4735C29.2299 23.4024 29.0325 23.5998 29.0325 23.8434V39.6704C29.0325 39.914 29.2299 40.1114 29.4735 40.1114H42.5859C42.8295 40.1114 43.0269 39.914 43.0269 39.6704V23.8434C43.0269 23.5998 42.8295 23.4024 42.5859 23.4024Z" fill="white"/>
<path d="M42.5908 40.6014H29.4784C29.2344 40.6015 29 40.5063 28.8251 40.336C28.6503 40.1658 28.5489 39.934 28.5425 39.69V23.8434C28.5438 23.596 28.643 23.3593 28.8183 23.1848C28.9937 23.0103 29.231 22.9124 29.4784 22.9124H42.5908C42.8373 22.9137 43.0734 23.0122 43.2477 23.1865C43.422 23.3608 43.5205 23.5969 43.5218 23.8434V39.69C43.5154 39.9331 43.4147 40.1642 43.2409 40.3343C43.0671 40.5044 42.834 40.6002 42.5908 40.6014ZM29.5225 39.6214H42.5418V23.8924H29.5225V39.6214Z" fill="#0E0E0E"/>
<path d="M25.2889 36.0346H12.1765C11.9329 36.0346 11.7355 36.2321 11.7355 36.4756V38.8374C11.7355 39.081 11.9329 39.2784 12.1765 39.2784H25.2889C25.5325 39.2784 25.7299 39.081 25.7299 38.8374V36.4756C25.7299 36.2321 25.5325 36.0346 25.2889 36.0346Z" fill="white"/>
<path d="M25.2938 39.7635H12.1765C11.93 39.7622 11.6939 39.6637 11.5196 39.4894C11.3453 39.3151 11.2468 39.079 11.2455 38.8325V36.4756C11.2468 36.2291 11.3453 35.993 11.5196 35.8187C11.6939 35.6444 11.93 35.5459 12.1765 35.5446H25.2938C25.5403 35.5459 25.7764 35.6444 25.9507 35.8187C26.125 35.993 26.2235 36.2291 26.2248 36.4756V38.8325C26.2235 39.079 26.125 39.3151 25.9507 39.4894C25.7764 39.6637 25.5403 39.7622 25.2938 39.7635ZM12.25 38.7835H25.2448V36.5246H12.25V38.7835Z" fill="#0E0E0E"/>
<path d="M25.7348 25.7887H17.4048C17.2099 25.7887 17.0229 25.7113 16.8851 25.5734C16.7472 25.4356 16.6698 25.2487 16.6698 25.0537C16.6698 24.8588 16.7472 24.6718 16.8851 24.534C17.0229 24.3962 17.2099 24.3187 17.4048 24.3187H25.7348C25.9297 24.3187 26.1167 24.3962 26.2545 24.534C26.3924 24.6718 26.4698 24.8588 26.4698 25.0537C26.4698 25.2487 26.3924 25.4356 26.2545 25.5734C26.1167 25.7113 25.9297 25.7887 25.7348 25.7887Z" fill="#0E0E0E"/>
<path d="M25.7348 28.7042H8.45741C8.32745 28.7042 8.20282 28.6526 8.11092 28.5607C8.01903 28.4688 7.96741 28.3441 7.96741 28.2142C7.96741 28.0842 8.01903 27.9596 8.11092 27.8677C8.20282 27.7758 8.32745 27.7242 8.45741 27.7242H25.7348C25.8648 27.7242 25.9894 27.7758 26.0813 27.8677C26.1732 27.9596 26.2248 28.0842 26.2248 28.2142C26.2248 28.3441 26.1732 28.4688 26.0813 28.5607C25.9894 28.6526 25.8648 28.7042 25.7348 28.7042Z" fill="#0E0E0E"/>
<path d="M25.7348 30.9484H8.45741C8.32745 30.9484 8.20282 30.8968 8.11092 30.8049C8.01903 30.713 7.96741 30.5883 7.96741 30.4584C7.96741 30.3284 8.01903 30.2038 8.11092 30.1119C8.20282 30.02 8.32745 29.9684 8.45741 29.9684H25.7348C25.8648 29.9684 25.9894 30.02 26.0813 30.1119C26.1732 30.2038 26.2248 30.3284 26.2248 30.4584C26.2248 30.5883 26.1732 30.713 26.0813 30.8049C25.9894 30.8968 25.8648 30.9484 25.7348 30.9484Z" fill="#0E0E0E"/>
<path d="M25.7348 33.1289H12.9948C12.8649 33.1289 12.7402 33.0773 12.6483 32.9854C12.5564 32.8935 12.5048 32.7689 12.5048 32.6389C12.5048 32.509 12.5564 32.3843 12.6483 32.2924C12.7402 32.2006 12.8649 32.1489 12.9948 32.1489H25.7348C25.8648 32.1489 25.9894 32.2006 26.0813 32.2924C26.1732 32.3843 26.2248 32.509 26.2248 32.6389C26.2248 32.7689 26.1732 32.8935 26.0813 32.9854C25.9894 33.0773 25.8648 33.1289 25.7348 33.1289Z" fill="#0E0E0E"/>
<path d="M42.1391 23.3045L29.3379 39.3748L30.1044 39.9854L42.9057 23.9151L42.1391 23.3045Z" fill="#0E0E0E"/>
<path d="M29.7787 23.5485L29.0214 24.1705L42.1246 40.1226L42.8819 39.5006L29.7787 23.5485Z" fill="#0E0E0E"/>
<path d="M43.0449 15.2095L5.68703 19.5782L5.74394 20.0649L43.1018 15.6962L43.0449 15.2095Z" fill="#0E0E0E"/>
<path d="M5.74214 15.2207L5.68539 15.7074L43.0447 20.0631L43.1015 19.5764L5.74214 15.2207Z" fill="#0E0E0E"/>
</g>
<defs>
<clipPath id="clip0_0_75">
<rect width="49" height="49" fill="white"/>
</clipPath>
</defs>
</svg>
