<svg width="16" height="16" viewBox="0 0 16 16" fill="none" xmlns="http://www.w3.org/2000/svg">
<path d="M3.47575 5.06152H0.259399V15.3183H3.47575V5.06152Z" fill="#0E0E0E"/>
<path d="M12.1762 4.83947C12.0576 4.82465 11.9316 4.81723 11.8056 4.80982C10.0048 4.73571 8.98946 5.80289 8.63374 6.26237C8.53739 6.38835 8.49293 6.46246 8.49293 6.46246V5.09144H5.41739V15.3482H8.49293H8.63374C8.63374 14.3032 8.63374 13.2657 8.63374 12.2208C8.63374 11.6575 8.63374 11.0943 8.63374 10.5311C8.63374 9.83444 8.58186 9.09334 8.93017 8.456C9.22661 7.92242 9.76019 7.65562 10.3605 7.65562C12.1391 7.65562 12.1762 9.26379 12.1762 9.41201C12.1762 9.41942 12.1762 9.42683 12.1762 9.42683V15.3926H15.3925V8.70056C15.3925 6.41059 14.229 5.0618 12.1762 4.83947Z" fill="#0E0E0E"/>
<path d="M1.86755 3.73511C2.89897 3.73511 3.73511 2.89898 3.73511 1.86756C3.73511 0.836133 2.89897 0 1.86755 0C0.836129 0 0 0.836133 0 1.86756C0 2.89898 0.836129 3.73511 1.86755 3.73511Z" fill="#0E0E0E"/>
</svg>
