<svg width="17" height="15" viewBox="0 0 17 15" fill="none" xmlns="http://www.w3.org/2000/svg">
<path d="M0 12.8501C1.82992 12.9542 3.4301 12.5217 4.99068 11.3763C3.41426 11.104 2.32107 10.3751 1.72694 8.86926C2.1864 8.80518 2.59041 8.92533 3.06571 8.73309C1.51305 8.04426 0.506992 7.01102 0.467383 5.22486C0.95853 5.26491 1.33085 5.5933 1.91706 5.54525C0.491152 4.13555 0.055452 2.59769 0.950606 0.731437C2.43989 2.46153 4.18267 3.63895 6.31361 4.19161C6.43244 4.22365 6.54334 4.25569 6.66216 4.27972C7.20876 4.40787 7.85834 4.6802 8.19106 4.64015C8.76142 4.56807 8.19106 3.90327 8.33365 3.03822C8.78519 0.346973 11.7162 -0.878506 13.8868 0.699399C14.5205 1.16396 15.0196 1.15595 15.6454 0.875611C15.9702 0.731437 16.3029 0.587263 16.6911 0.41906C16.6039 1.18799 16.0177 1.6125 15.5503 2.18119C16.0811 2.30133 16.5089 2.14915 17 1.98896C16.8336 2.54162 16.4217 2.854 16.0494 3.15837C15.6612 3.47074 15.5107 3.79914 15.4949 4.31176C15.2572 12.0731 6.53542 18.0724 0.570369 13.2986C-0.00791593 12.834 0.55452 13.2986 0 12.8501Z" fill="#0E0E0E"/>
</svg>
