<svg xmlns="http://www.w3.org/2000/svg" aria-hidden="true" style="position:absolute;width:0;height:0;overflow:hidden">
  <defs>
    <symbol id="icon-vaadin" viewBox="0 0 32 32">
      <path d="m17.84 27.34-3.22-3.06-3-2.84 4-.58 4.5-.64.58-1.14h-.04a1.998 1.998 0 0 1-1.958-1.588c-.002-1.234 1.598-.834 2.858-2.914.16-.04 5.64-14.58-5.56-14.58s-5.72 14.54-5.72 14.54c1.26 2 2.88 1.7 2.86 2.9s-1.48 1.6-2.86 1.74C8 19.438 6 18.918 4 22.698c-1.2 2.18-1.7 9.3-1.7 9.3h14.72v-.34l.82-4.318zm5.6 4.66h1.12l-.56-.28-.56.28z"/>
      <path d="M24 29.46 28.94 32 28 26.62l4-3.8-5.52-.78-2.48-4.9-2.48 4.9-5.52.78 4 3.8-.94 5.38L24 29.46z"/>
    </symbol>
    <!-- Footer smm-icons -->
    <symbol id="icon-facebook" viewBox="0 0 19 32">
      <path d="M11.861 18.604V32H5.382V18.604H-.001v-5.432h5.383v-1.976C5.382 3.859 8.609.001 15.437.001c2.093 0 2.617.32 3.763.58v5.373c-1.283-.213-1.645-.331-2.978-.331-1.582 0-2.43.426-3.202 1.266s-1.159 2.296-1.159 4.379v1.917H19.2l-1.969 5.432h-5.37v-.012z"/>
    </symbol>
    <symbol id="icon-instagram" viewBox="0 0 32 32">
      <path d="M25.805 30.983H5.179A5.192 5.192 0 0 1 0 25.804V5.178A5.192 5.192 0 0 1 5.179-.001h20.626a5.192 5.192 0 0 1 5.179 5.179v20.626a5.176 5.176 0 0 1-5.179 5.179z"/>
      <path d="M15.498 23.451c-2.125 0-4.123-.827-5.624-2.329s-2.329-3.499-2.329-5.624.827-4.123 2.329-5.624c1.501-1.501 3.499-2.329 5.624-2.329s4.123.827 5.624 2.329c1.501 1.501 2.329 3.499 2.329 5.624s-.827 4.123-2.329 5.624a7.921 7.921 0 0 1-5.624 2.329zm0-14.213a6.264 6.264 0 0 0-6.26 6.26 6.264 6.264 0 0 0 6.26 6.26 6.264 6.264 0 0 0 6.26-6.26c-.013-3.448-2.812-6.26-6.26-6.26zM25.001 7.284a1.527 1.527 0 1 0 0-3.055 1.527 1.527 0 0 0 0 3.055z"/>
    </symbol>
    <symbol id="icon-linkedIn" viewBox="0 0 32 32">
      <path d="M6.952 10.123H.519v20.514h6.433V10.123zM24.352 9.679c-.237-.03-.489-.044-.741-.059-3.602-.148-5.632 1.986-6.344 2.905-.193.252-.282.4-.282.4v-2.742h-6.151v20.514h6.433v-9.634c0-1.393-.104-2.876.593-4.15.593-1.067 1.66-1.601 2.861-1.601 3.557 0 3.631 3.216 3.631 3.513v11.962h6.433V17.403c0-4.58-2.327-7.278-6.433-7.722zM3.735 7.47a3.735 3.735 0 1 0 0-7.47 3.735 3.735 0 0 0 0 7.47z"/>
    </symbol>
    <symbol id="icon-twitter" viewBox="0 0 36 32">
      <path d="M0 27.414c3.904.222 7.318-.701 10.647-3.144-3.363-.581-5.695-2.136-6.963-5.348.98-.137 1.842.12 2.856-.291-3.312-1.47-5.459-3.674-5.543-7.484 1.048.085 1.842.786 3.093.684C1.048 8.824.119 5.543 2.028 1.562c3.177 3.691 6.895 6.203 11.441 7.382.254.068.49.137.744.188 1.166.273 2.552.854 3.262.769 1.217-.154 0-1.572.304-3.417.963-5.741 7.216-8.356 11.847-4.989 1.352.991 2.417.974 3.752.376.693-.308 1.403-.615 2.231-.974-.186 1.64-1.437 2.546-2.434 3.759 1.132.256 2.045-.068 3.093-.41-.355 1.179-1.234 1.845-2.028 2.495-.828.666-1.149 1.367-1.183 2.461C32.55 25.76 13.943 38.558 1.218 28.374c-1.234-.991-.034 0-1.217-.957z"/>
    </symbol>
  </defs>
</svg>