<svg xmlns="http://www.w3.org/2000/svg" aria-hidden="true" style="position:absolute;width:0;height:0;overflow:hidden">
  <defs>
    <symbol id="icon-vaadin" viewBox="0 0 32 32">
<path d="M17.84 27.34l-3.22-3.060-3-2.84 4-0.58 4.5-0.64 0.58-1.14h-0.040c-0.459 0-0.904-0.157-1.261-0.447s-0.603-0.692-0.697-1.141c-0.002-1.234 1.598-0.834 2.858-2.914 0.16-0.040 5.64-14.58-5.56-14.58s-5.72 14.54-5.72 14.54c1.26 2 2.88 1.7 2.86 2.9s-1.48 1.6-2.86 1.74c-2.28 0.26-4.28-0.26-6.28 3.52-1.2 2.18-1.7 9.3-1.7 9.3h14.72v-0.34l0.82-4.318zM23.44 32h1.12l-0.56-0.28-0.56 0.28z"></path>
<path d="M24 29.46l4.94 2.54-0.94-5.38 4-3.8-5.52-0.78-2.48-4.9-2.48 4.9-5.52 0.78 4 3.8-0.94 5.38 4.94-2.54z"></path>
</symbol>
  </defs>
</svg>