<svg width="15" height="15" viewBox="0 0 15 15" fill="none" xmlns="http://www.w3.org/2000/svg">
<path d="M12.0959 14.5234H2.42753C1.09149 14.5234 0 13.4319 0 12.0959V2.42753C0 1.09149 1.09149 0 2.42753 0H12.0959C13.4319 0 14.5234 1.09149 14.5234 2.42753V12.0959C14.5234 13.4379 13.4379 14.5234 12.0959 14.5234Z" fill="#0E0E0E"/>
<path d="M7.2647 10.9927C6.26864 10.9927 5.33222 10.605 4.62842 9.90117C3.92461 9.19736 3.53693 8.26094 3.53693 7.26488C3.53693 6.26882 3.92461 5.33241 4.62842 4.6286C5.33222 3.9248 6.26864 3.53711 7.2647 3.53711C8.26076 3.53711 9.19718 3.9248 9.90098 4.6286C10.6048 5.33241 10.9925 6.26882 10.9925 7.26488C10.9925 8.26094 10.6048 9.19736 9.90098 9.90117C9.19121 10.605 8.26076 10.9927 7.2647 10.9927ZM7.2647 4.33038C5.64834 4.33038 4.3302 5.64256 4.3302 7.26488C4.3302 8.88125 5.64237 10.1994 7.2647 10.1994C8.88106 10.1994 10.1992 8.88721 10.1992 7.26488C10.1932 5.64852 8.88106 4.33038 7.2647 4.33038Z" fill="white"/>
<path d="M11.7191 3.41417C12.1144 3.41417 12.4348 3.09372 12.4348 2.69842C12.4348 2.30312 12.1144 1.98267 11.7191 1.98267C11.3238 1.98267 11.0033 2.30312 11.0033 2.69842C11.0033 3.09372 11.3238 3.41417 11.7191 3.41417Z" fill="white"/>
</svg>
